#!OML:ASF F:\VICON\USERDATA\INSTALL\rory3\rory3.ASF
:FULLY-SPECIFIED
:DEGREES
36
root 0.13119573183250355 18.310036994075286 5.428289055759672 4.398764947328544 -2.060918408414679 1.9067090949944283
lfemur 11.424233142668568 -3.9750485740357377 -26.66650726701584
ltibia 58.545339442664115
lfoot 10.214459652576533 -14.599383176504205
ltoes -7.654300088751924
rfemur -31.46282768913957 3.026448045000042 24.49667545619883
rtibia 41.29670239691288
rfoot -5.690753637557444 -2.366028006064315
rtoes -7.971095087234511
lowerback 13.022524368963351 -0.9425766560662571 -1.8339918097560288
upperback -1.4388180853341144 -2.5310728684833537 1.7008354066062255
thorax -8.175575458924584 0.013903008844669995 2.68208340441918
lowerneck -18.722541779506074 -2.7740123456983254 -2.7719505242545313
upperneck 14.478433781773976 -3.899599669466858 2.7267833378368795
head 7.546352917987788 -1.753732115306051 0.939718180995506
lclavicle 3.072482726298347e-16 -4.3067221207456756e-16
lhumerus -36.259619463032294 -19.5125507872729 98.89195434220306
lradius 114.06579054822271
lwrist 31.926646592692936
lhand -24.868727635746886 2.0307076420678465
lfingers 7.125020000000001
lthumb 1.3374849895833045 31.868539192313797
rclavicle 3.0728743639570436e-16 -4.306498569293935e-16
rhumerus -60.97392910160358 4.928211068528084 -94.78943545473125
rradius 100.19711306732951
rwrist -19.101595198596165
rhand -18.831342359909684 38.62247338554416
rfingers 7.125020000000001
rthumb 7.325466125367414 8.875931204602555
37
root 0.1550728477330476 18.19986111011112 7.07324052397985 3.6659694406187406 -2.6710467202271944 1.5756683216388467
lfemur 8.762679037865562 -3.4314250594442144 -25.641705869570725
ltibia 66.24168973138634
lfoot 8.600496107022114 -13.90937534887111
ltoes -5.797989750351329
rfemur -29.13243120707112 3.178599495966247 25.48146578161652
rtibia 39.109546204118715
rfoot -6.686973091830299 -3.1254974755693343
rtoes -6.3698626299459935
lowerback 13.696406374215856 -0.7631742229828961 -1.5842577030428677
upperback -1.1586254530883764 -2.447553178447836 1.631861854062301
thorax -8.20968219584759 0.09621539764585474 2.633595012700495
lowerneck -18.694808553372386 -2.7512707287496116 -2.7559260928307245
upperneck 14.252085913294051 -3.950162275713711 2.5946551527971176
head 7.510254252187043 -1.747027616580922 0.9080441149064492
lclavicle 3.0724827262903376e-16 -4.3067221207502476e-16
lhumerus -36.94819268435954 -18.720728832142328 98.51882613395424
lradius 113.95552342435488
lwrist 31.911956578182984
lhand -24.9796186140406 2.0137597258135385
lfingers 7.125020000000001
lthumb 1.233757309138079 31.82560130213134
rclavicle 3.0728743646649003e-16 -4.306498568889882e-16
rhumerus -60.08043728300174 4.381244404147653 -94.50706511297201
rradius 100.13564083411407
rwrist -19.17001703135633
rhand -18.731927832174744 38.45834745695502
rfingers 7.125020000000001
rthumb 7.414335905589081 8.650743245553588
38
root 0.16990501859207258 18.039719150019966 8.776032093325087 2.9094388337471546 -3.4221643664834094 1.3457172985647892
lfemur 6.653563129445017 -2.2274755955583316 -24.200128594477565
ltibia 71.72282793992665
lfoot 7.208424811462742 -12.866144521497453
ltoes -3.7007575765853193
rfemur -28.619767931938703 3.1598686846254287 25.907758922055105
rtibia 37.80528114518047
rfoot -7.2566220846286 -4.717560997049661
rtoes -5.9909195974592215
lowerback 14.360685335519808 -0.3977372216744651 -1.1956322562697632
upperback -0.8067417734930263 -2.02458851964671 1.5978190697599175
thorax -8.208723212985783 0.24387992583152318 2.447276522283517
lowerneck -18.66730565548377 -2.7815427764462144 -2.7384598748938846
upperneck 14.217320354985908 -3.967314960105652 2.4064998655845224
head 7.478452408111637 -1.7545006324884747 0.8659841019609085
lclavicle 3.072482726394543e-16 -4.3067221206907655e-16
lhumerus -37.62910959700741 -17.424849525548716 98.48908785911267
lradius 113.76305664231609
lwrist 31.90159710268621
lhand -25.137388685564506 2.2260156509422515
lfingers 7.125020000000001
lthumb 1.0348535937087644 31.964672324650532
rclavicle 3.0728743649232133e-16 -4.3064985687424337e-16
rhumerus -58.97126554603418 3.943854261420938 -94.24372714248081
rradius 100.34600728959926
rwrist -19.14132321336538
rhand -18.675274025923105 38.28152377019903
rfingers 7.125020000000001
rthumb 7.564276385525146 8.514893189729756
39
root 0.1726781824791998 17.830079621665355 9.748556736537232 2.190517075666044 -4.175792116553068 0.8833712114594172
lfemur 2.7629869643958056 -1.1287904708657053 -22.897661092556945
ltibia 75.28824991083059
lfoot 5.734226541752706 -11.775077676656675
ltoes -2.13788783758383
rfemur -27.135787968399796 3.3604550262010093 26.96279361399896
rtibia 37.38542588326479
rfoot -7.311007342707944 -6.158407190975488
rtoes -5.5310779390691724
lowerback 14.917902381822344 -0.08357614074078845 -0.6517252737951817
upperback -0.44707068962019914 -1.4626527913916172 1.572511153670592
thorax -8.248565236657605 0.3526523812933816 2.2681633421224183
lowerneck -18.696218913172434 -2.7504569020467575 -2.6387115430020067
upperneck 14.306005904904524 -3.8877933360017307 2.2762686511429124
head 7.454471261329018 -1.7689012357544573 0.8182801313461252
lclavicle 3.0724827264875587e-16 -4.3067221206376717e-16
lhumerus -39.42249546376988 -16.359750150904798 98.55780350510857
lradius 113.64574852754653
lwrist 31.96177305655976
lhand -25.367240814183397 2.526169869474062
lfingers 7.125020000000001
lthumb 0.8106773795800326 32.22628026694926
rclavicle 3.0728743651753816e-16 -4.306498568598493e-16
rhumerus -57.52601508569854 3.650450767967045 -94.17584715209789
rradius 100.72006809886481
rwrist -19.086507827987663
rhand -18.654192393490334 38.068216135619565
rfingers 7.125020000000001
rthumb 7.564646148122761 8.161270075521251
